<svg xmlns="http://www.w3.org/2000/svg" xmlns:xlink="http://www.w3.org/1999/xlink" viewBox="0,0,256,256" width="192px" height="192px" fill-rule="evenodd"><g fill="#20c997" fill-rule="evenodd" stroke="none" stroke-width="1" stroke-linecap="butt" stroke-linejoin="miter" stroke-miterlimit="10" stroke-dasharray="" stroke-dashoffset="0" font-family="none" font-weight="none" font-size="none" text-anchor="none" style="mix-blend-mode: normal"><g transform="scale(10.66667,10.66667)"><path d="M15.15,16.704l-0.007,0.012l-3.617,6.024c0.157,0.007 0.315,0.01 0.474,0.01c3.219,0 6.109,-1.418 8.08,-3.662l-3.093,-5.566zM13.175,17.08h-10.65c1.496,2.781 4.179,4.829 7.37,5.464zM22.138,8.42h-6.339l1.851,3.205l0.006,0.011l3.41,6.139c1.066,-1.669 1.684,-3.65 1.684,-5.775c0,-1.255 -0.215,-2.46 -0.612,-3.58zM2.794,6.449c-0.98,1.62 -1.544,3.52 -1.544,5.551c0,1.255 0.215,2.46 0.612,3.58h6.339l-1.847,-3.2zM14.067,8.42l2.067,3.58l-2.067,3.58h-4.134l-2.067,-3.58l2.067,-3.58zM3.745,5.117l3.243,5.405l1.861,-3.225l0.013,-0.021l3.71,-6.011c-0.189,-0.01 -0.38,-0.015 -0.572,-0.015c-3.315,0 -6.282,1.504 -8.255,3.867zM14.204,1.477l-3.36,5.443h10.631c-1.48,-2.752 -4.124,-4.787 -7.271,-5.443z"></path></g></g></svg>